<svg xmlns="http://www.w3.org/2000/svg" width="32" height="32" viewBox="0 0 32 32"><g transform="translate(0 -1020.362)"><path fill="#f05542" fill-rule="evenodd" style="line-height:normal;text-indent:0;text-align:start;text-decoration-line:none;text-decoration-style:solid;text-decoration-color:#000;text-transform:none;block-progression:tb;isolation:auto;mix-blend-mode:normal" d="m 10.72266,1025.9912 c -1.71977,0 -3.44086,0.6586 -4.75391,1.9766 -2.62607,2.6359 -2.62606,6.9011 0,9.5371 l 0.88086,0.8828 8.79688,8.8281 a 0.50005,0.50005 0 0 0 0.70703,0 l 8.79687,-8.8281 0.88086,-0.8828 c 2.62607,-2.636 2.62608,-6.9012 0,-9.5371 -2.62608,-2.636 -6.87977,-2.636 -9.50586,0 L 16,1028.4971 l -0.52539,-0.5293 c -1.31304,-1.318 -3.03218,-1.9766 -4.75195,-1.9766 z m 0,0.9922 c 1.46024,0 2.91932,0.5635 4.04297,1.6914 l 0.88086,0.8828 a 0.50005,0.50005 0 0 0 0.70703,0 l 0.88086,-0.8828 c 2.2473,-2.2558 5.84059,-2.2558 8.08789,0 2.2473,2.2557 2.24731,5.8672 0,8.1231 l -0.88086,0.8828 -8.44141,8.4746 -8.44335,-8.4746 -0.87891,-0.8828 c -2.24732,-2.2559 -2.2473,-5.8674 0,-8.1231 1.12365,-1.1279 2.58468,-1.6914 4.04492,-1.6914 z" color="#000" font-family="sans-serif" font-weight="400" overflow="visible" white-space="normal"/><path fill="#f05542" fill-rule="evenodd" style="line-height:normal;text-indent:0;text-align:start;text-decoration-line:none;text-decoration-style:solid;text-decoration-color:#000;text-transform:none;block-progression:tb;isolation:auto;mix-blend-mode:normal" d="m 10.75,1027.9912 c -1.69621,0 -3.26517,0.9061 -4.11328,2.375 -0.8481,1.469 -0.8481,3.2811 0,4.75 a 0.50005,0.50005 0 1 0 0.86524,-0.5 c -0.67028,-1.1609 -0.67028,-2.589 0,-3.75 0.67027,-1.1609 1.9075,-1.875 3.24804,-1.875 a 0.50005,0.50005 0 1 0 0,-1 z" color="#000" font-family="sans-serif" font-weight="400" overflow="visible" white-space="normal"/></g></svg>